# File created by Blade
# Date/Time:  Thu Sep 25 19:43:58 2014
# Frame Rate: 120.000 fps
#------------------------------------------------------
:FULLY-SPECIFIED
:DEGREES
1222
root -2.361568 33.278062 -3.375172 12.909104 2.919415 -3.001204
Spine -10.715295 5.600792 4.560870
Head -20.328030 -5.331501 8.133036
LeftShoulder -12.375214 20.626447 21.417783
LeftArm 22.808585 -12.856764 -41.198707
LeftForeArm 9.840536 -0.000000 14.222069
LeftHand -24.354555 0.000000 -15.036143
LeftHandThumb1 -26.253704 0.000000 33.147579
RightShoulder -19.912079 11.193352 -33.476872
RightArm -9.753772 6.284712 43.862306
RightForeArm -23.708783 -0.000000 18.376877
RightHand -10.443324 -0.000000 -3.901283
RightHandThumb1 -24.326973 -0.000000 -32.862282
LeftUpLeg -6.136717 3.074708 2.522087
LeftLeg -0.785331 -0.000000 0.000000
LeftFoot -8.241918 2.788634 -18.443099
LeftToeBase 8.619078 -0.000000 -0.000000
RightUpLeg -12.751931 -0.036685 4.262873
RightLeg 16.049475 -0.000000 -0.000000
RightFoot -16.852783 -10.290234 6.115542
RightToeBase -4.548457 -0.000000 0.000000
1223
root -2.322790 33.244035 -3.347028 12.806374 2.953392 -2.677233
Spine -11.000739 5.537737 4.114409
Head -19.736699 -5.586767 8.101907
LeftShoulder -12.449257 20.505271 21.898163
LeftArm 22.625335 -13.594023 -40.432953
LeftForeArm 10.141978 0.000000 14.216126
LeftHand -24.401794 -0.000000 -14.743626
LeftHandThumb1 -26.253704 0.000000 33.147579
RightShoulder -19.951158 11.404837 -34.012500
RightArm -9.605574 6.585408 42.699772
RightForeArm -24.162447 0.000000 18.466042
RightHand -10.393818 0.000000 -4.038276
RightHandThumb1 -24.326973 -0.000000 -32.862282
LeftUpLeg -5.700156 3.082396 2.161558
LeftLeg -1.317375 -0.000000 0.000000
LeftFoot -8.190723 2.589757 -18.632017
LeftToeBase 8.902241 -0.000000 -0.000000
RightUpLeg -11.941039 -0.333969 4.127215
RightLeg 14.407625 -0.000000 -0.000000
RightFoot -15.888491 -9.282398 5.686128
RightToeBase -5.186093 -0.000000 0.000000
1224
root -2.287722 33.204350 -3.322646 12.714175 2.988514 -2.359743
Spine -11.279162 5.473701 3.675477
Head -19.239987 -5.949861 8.049217
LeftShoulder -12.521605 20.318248 22.327750
LeftArm 22.385305 -14.256520 -39.534890
LeftForeArm 10.277825 0.000000 14.158895
LeftHand -24.508488 -0.000000 -14.574279
LeftHandThumb1 -26.253704 0.000000 33.147579
RightShoulder -19.986763 11.605195 -34.562428
RightArm -9.434727 6.964315 41.572005
RightForeArm -24.612547 -0.000000 18.554276
RightHand -10.337434 0.000000 -3.982629
RightHandThumb1 -24.326973 -0.000000 -32.862282
LeftUpLeg -5.350199 3.166413 1.807866
LeftLeg -1.695799 -0.000000 0.000000
LeftFoot -8.188958 2.265058 -18.673207
LeftToeBase 9.094510 -0.000000 -0.000000
RightUpLeg -11.072109 -0.594117 3.990839
RightLeg 12.588353 -0.000000 -0.000000
RightFoot -14.530482 -8.744850 3.924847
RightToeBase -4.842135 -0.000000 0.000000
1225
root -2.253384 33.160305 -3.301424 12.649820 3.029547 -2.009212
Spine -11.542595 5.372932 3.195488
Head -18.766972 -6.031148 7.984893
LeftShoulder -12.652845 20.059251 22.802037
LeftArm 22.160102 -14.854180 -38.706162
LeftForeArm 10.412840 -0.000000 14.056942
LeftHand -24.710727 0.000000 -14.183091
LeftHandThumb1 -26.253704 0.000000 33.147579
RightShoulder -20.087594 11.843625 -35.116583
RightArm -9.161751 7.284723 40.497393
RightForeArm -24.891198 0.000000 18.594390
RightHand -10.277598 -0.000000 -3.891698
RightHandThumb1 -24.326973 -0.000000 -32.862282
LeftUpLeg -5.050247 3.051753 1.434810
LeftLeg -2.031047 -0.000000 0.000000
LeftFoot -8.296456 2.182124 -18.650919
LeftToeBase 9.248717 -0.000000 -0.000000
RightUpLeg -10.276024 -0.963190 3.823990
RightLeg 10.906074 -0.000000 -0.000000
RightFoot -13.113832 -8.896930 0.521294
RightToeBase -2.841039 -0.000000 0.000000
1226
root -2.216076 33.115108 -3.280703 12.585186 3.055052 -1.669109
Spine -11.830319 5.303323 2.750035
Head -18.232750 -6.192279 7.898512
LeftShoulder -12.752672 19.844677 23.257721
LeftArm 21.950423 -15.544057 -37.940718
LeftForeArm 10.767665 -0.000000 14.026024
LeftHand -24.988385 -0.000000 -13.969741
LeftHandThumb1 -26.253704 0.000000 33.147579
RightShoulder -20.130743 12.063727 -35.695820
RightArm -8.890894 7.552895 39.487591
RightForeArm -25.167449 -0.000000 18.610803
RightHand -10.504617 -0.000000 -3.824036
RightHandThumb1 -24.326973 -0.000000 -32.862282
LeftUpLeg -4.778315 2.913328 1.062215
LeftLeg -2.320539 -0.000000 0.000000
LeftFoot -8.458439 2.131876 -18.587629
LeftToeBase 9.417262 -0.000000 -0.000000
RightUpLeg -9.506017 -1.362376 3.551742
RightLeg 9.340630 -0.000000 -0.000000
RightFoot -12.769307 -9.351166 -0.046845
RightToeBase 0.187039 -0.000000 -0.000000
1227
root -2.171417 33.066892 -3.268564 12.571443 3.035014 -1.235885
Spine -12.126402 5.287499 2.161677
Head -17.819691 -6.420008 7.834490
LeftShoulder -12.918986 19.618102 23.736712
LeftArm 21.885416 -16.152930 -37.188459
LeftForeArm 11.116573 -0.000000 13.918388
LeftHand -25.079087 0.000000 -13.845473
LeftHandThumb1 -26.253704 0.000000 33.147579
RightShoulder -20.212252 12.350132 -36.239219
RightArm -8.679169 7.928348 38.434495
RightForeArm -25.577014 -0.000000 18.681208
RightHand -10.614813 -0.000000 -3.595137
RightHandThumb1 -24.326973 -0.000000 -32.862282
LeftUpLeg -4.618635 2.836469 0.555586
LeftLeg -2.496141 -0.000000 0.000000
LeftFoot -8.641308 2.080141 -18.498290
LeftToeBase 9.546831 -0.000000 -0.000000
RightUpLeg -8.869885 -1.767172 3.085730
RightLeg 8.054797 -0.000000 -0.000000
RightFoot -13.210998 -10.490597 1.278806
RightToeBase 1.039567 -0.000000 -0.000000
1228
root -2.132869 33.018946 -3.260973 12.566871 2.999082 -0.815112
Spine -12.406613 5.266875 1.594163
Head -17.422755 -6.659050 7.782245
LeftShoulder -13.121786 19.442771 24.200200
LeftArm 21.886452 -16.797952 -36.506559
LeftForeArm 11.207543 -0.000000 13.785493
LeftHand -25.164082 -0.000000 -13.310600
LeftHandThumb1 -26.253704 0.000000 33.147579
RightShoulder -20.232288 12.562574 -36.837489
RightArm -8.454137 8.550614 37.531531
RightForeArm -26.089676 -0.000000 18.693926
RightHand -10.782126 0.000000 -3.537330
RightHandThumb1 -24.326973 -0.000000 -32.862282
LeftUpLeg -4.477902 2.628372 0.083519
LeftLeg -2.668938 -0.000000 0.000000
LeftFoot -8.858493 2.181977 -18.380454
LeftToeBase 9.534433 -0.000000 -0.000000
RightUpLeg -8.331766 -2.236385 2.635507
RightLeg 7.095854 -0.000000 -0.000000
RightFoot -13.435232 -10.624031 1.259744
RightToeBase 1.147870 -0.000000 -0.000000
1229
root -2.099740 32.973869 -3.252713 12.520345 2.910719 -0.460149
Spine -12.613768 5.299884 1.087307
Head -17.078922 -6.777301 7.663268
LeftShoulder -13.286105 19.141302 24.684559
LeftArm 21.750570 -17.494431 -35.893311
LeftForeArm 11.848152 -0.000000 13.747187
LeftHand -25.392583 0.000000 -13.111744
LeftHandThumb1 -26.253704 0.000000 33.147579
RightShoulder -20.294404 12.882076 -37.429243
RightArm -8.220266 8.911394 36.644722
RightForeArm -26.352651 -0.000000 18.676383
RightHand -10.945708 -0.000000 -3.635029
RightHandThumb1 -24.326973 -0.000000 -32.862282
LeftUpLeg -4.291074 2.379207 -0.317493
LeftLeg -2.831894 -0.000000 0.000000
LeftFoot -9.136410 2.344077 -18.255008
LeftToeBase 9.829937 -0.000000 -0.000000
RightUpLeg -7.750803 -2.716432 2.270196
RightLeg 6.184462 -0.000000 -0.000000
RightFoot -13.420326 -9.749389 0.301888
RightToeBase 1.430165 -0.000000 -0.000000
1230
root -2.076103 32.941012 -3.252719 12.529906 2.929650 -0.163909
Spine -12.857533 5.312761 0.678772
Head -16.805262 -7.032863 7.495964
LeftShoulder -13.414184 18.895311 25.150722
LeftArm 21.603266 -18.229811 -35.409509
LeftForeArm 12.503935 -0.000000 13.968692
LeftHand -25.539665 -0.000000 -12.895250
LeftHandThumb1 -26.253704 0.000000 33.147579
RightShoulder -20.418794 12.991413 -38.041203
RightArm -7.853568 9.569732 35.914182
RightForeArm -26.798179 -0.000000 18.636314
RightHand -11.137052 -0.000000 -3.631432
RightHandThumb1 -24.326973 -0.000000 -32.862282
LeftUpLeg -4.196259 1.813745 -0.603278
LeftLeg -2.989351 -0.000000 0.000000
LeftFoot -9.378705 2.795239 -18.188229
LeftToeBase 9.886914 -0.000000 -0.000000
RightUpLeg -7.242173 -3.488458 1.996977
RightLeg 5.222481 -0.000000 -0.000000
RightFoot -13.444112 -9.025021 -0.149295
RightToeBase 1.385242 -0.000000 -0.000000
1231
root -2.066762 32.920517 -3.255175 12.549411 2.883773 -0.082564
Spine -13.094957 5.398707 0.540301
Head -16.589416 -7.216608 7.237837
LeftShoulder -13.584871 18.726408 25.503223
LeftArm 21.537590 -18.934237 -34.947619
LeftForeArm 13.037994 -0.000000 14.022697
LeftHand -25.714910 -0.000000 -12.280885
LeftHandThumb1 -26.253704 0.000000 33.147579
RightShoulder -20.496914 13.109184 -38.640028
RightArm -7.487981 9.948093 35.179074
RightForeArm -26.995030 -0.000000 18.507799
RightHand -11.251709 0.000000 -3.774150
RightHandThumb1 -24.326973 -0.000000 -32.862282
LeftUpLeg -4.108531 1.202131 -0.646733
LeftLeg -3.176020 -0.000000 0.000000
LeftFoot -9.603761 3.362452 -18.217435
LeftToeBase 9.733915 -0.000000 -0.000000
RightUpLeg -6.791584 -4.137364 1.909702
RightLeg 4.248703 -0.000000 -0.000000
RightFoot -13.314466 -8.399296 -0.012464
RightToeBase 0.996051 -0.000000 -0.000000
1232
root -2.069537 32.914808 -3.263214 12.592715 2.793841 -0.223104
Spine -13.348128 5.558423 0.724798
Head -16.360741 -7.363249 6.721746
LeftShoulder -13.864396 18.857904 25.717347
LeftArm 21.680418 -19.894435 -34.769212
LeftForeArm 13.679531 -0.000000 14.233414
LeftHand -25.948854 -0.000000 -11.920657
LeftHandThumb1 -26.253704 0.000000 33.147579
RightShoulder -20.512053 13.296143 -39.288874
RightArm -7.165192 10.249165 34.460540
RightForeArm -27.163867 -0.000000 18.396030
RightHand -11.417067 -0.000000 -3.928032
RightHandThumb1 -24.326973 -0.000000 -32.862282
LeftUpLeg -4.098450 0.736234 -0.465114
LeftLeg -3.291023 -0.000000 0.000000
LeftFoot -9.833466 3.850453 -18.267234
LeftToeBase 9.734878 -0.000000 -0.000000
RightUpLeg -6.402319 -4.536347 2.024785
RightLeg 3.274996 -0.000000 -0.000000
RightFoot -12.887889 -7.552874 0.161021
RightToeBase 1.276468 -0.000000 -0.000000
